<?xml version="1.0" encoding="iso-8859-1"?>
<!-- Generator: Adobe Illustrator 19.0.0, SVG Export Plug-In . SVG Version: 6.00 Build 0)  -->
<svg version="1.1" id="Capa_1" xmlns="http://www.w3.org/2000/svg" xmlns:xlink="http://www.w3.org/1999/xlink" x="0px" y="0px"
	 viewBox="0 0 479.679 479.679" style="enable-background:new 0 0 479.679 479.679;" xml:space="preserve">
<g>
	<path style="fill:#00D7DF;" d="M388.799,66.581c-1.209-8.748-9.241-14.888-18-13.76l-348.88,46.24
		c-8.76,1.158-14.923,9.198-13.766,17.959c0.002,0.014,0.004,0.028,0.006,0.041l4.24,31.76l380.64-50.48L388.799,66.581z"/>
	<path style="fill:#00D7DF;" d="M18.639,196.341l18.96,142.8c1.161,8.741,9.176,14.895,17.92,13.76l32.16-4.24v-161.44
		L18.639,196.341z"/>
	<path style="fill:#00D7DF;" d="M402.639,170.981l-3.36-25.12l-189.44,25.12H402.639z"/>
</g>
<path style="fill:#00DDC2;" d="M455.679,170.981h-352c-8.826,0.026-15.974,7.174-16,16v224c0.026,8.826,7.174,15.974,16,16h352
	c8.826-0.026,15.974-7.174,16-16v-224C471.653,178.156,464.505,171.008,455.679,170.981z M423.679,378.981h-288v-48h288V378.981z
	 M391.679,282.981c-17.673,0-32-14.327-32-32c0,17.673-14.327,32-32,32s-32-14.327-32-32c0-17.673,14.327-32,32-32s32,14.327,32,32
	c0-17.673,14.327-32,32-32s32,14.327,32,32C423.679,268.654,409.352,282.981,391.679,282.981z"/>
<path style="fill:#78B9EB;" d="M12.319,148.821l6.32,47.52l-6.24-47.52H12.319z"/>
<path style="fill:#808285;" d="M87.679,186.981c0.026-8.826,7.174-15.974,16-16h106.16l189.44-25.12l-6.24-47.52l-380.64,50.48
	l6.24,47.52l69.04-9.12V186.981z"/>
<g>
	<circle style="fill:#FF9275;" cx="327.679" cy="250.981" r="32"/>
	<circle style="fill:#FF9275;" cx="391.679" cy="250.981" r="32"/>
	<path style="fill:#FF9275;" d="M135.679,330.981h288v48h-288V330.981z"/>
</g>
<g>
	<path style="fill:#353535;" d="M455.679,162.981h-46.032l-12.92-97.488c-1.85-13.089-13.87-22.265-26.984-20.6L20.839,91.133
		c-6.323,0.848-12.049,4.178-15.912,9.256c-3.88,5.044-5.574,11.433-4.704,17.736l29.44,222.024
		c1.564,11.957,11.757,20.897,23.816,20.888c1.033-0.002,2.064-0.072,3.088-0.208l23.112-3.048v53.2c0,13.255,10.745,24,24,24l0,0
		h352c13.255,0,24-10.745,24-24l0,0v-224C479.679,173.726,468.934,162.981,455.679,162.981L455.679,162.981z M80.735,180.077
		l-55.2,7.28l-4.2-31.648l364.8-48.384l2.4,18.336l1.776,13.32l-181.032,24h-105.6C93.099,163,83.779,169.944,80.735,180.077z
		 M392.431,154.845l1.08,8.136h-62.472L392.431,154.845z M17.647,110.101c1.287-1.711,3.206-2.835,5.328-3.12l348.84-46.224
		c4.387-0.556,8.411,2.504,9.048,6.88l3.16,23.824l-364.8,48.376l-3.16-23.872C15.782,113.877,16.353,111.764,17.647,110.101
		L17.647,110.101z M54.511,344.965c-4.38,0.582-8.402-2.497-8.984-6.877c0-0.001,0-0.002,0-0.003L27.679,203.221l52-6.872v145.296
		L54.511,344.965z M463.679,410.981c0,4.418-3.582,8-8,8h-352c-4.418,0-8-3.582-8-8v-223.76c0-0.08,0.04-0.16,0.04-0.24
		c0-4.418,3.582-8,8-8h351.96c4.418,0,8,3.582,8,8V410.981z"/>
	<path style="fill:#353535;" d="M391.679,210.981c-12.64,0.035-24.513,6.064-32,16.248c-13.118-17.775-38.161-21.55-55.937-8.432
		c-17.775,13.118-21.55,38.161-8.432,55.937c13.118,17.775,38.161,21.55,55.937,8.432c3.216-2.374,6.059-5.216,8.432-8.432
		c13.153,17.705,38.169,21.395,55.874,8.241c17.705-13.153,21.395-38.169,8.241-55.874
		C416.248,216.943,404.334,210.963,391.679,210.981L391.679,210.981z M327.679,274.981c-13.255,0-24-10.745-24-24
		c0-13.255,10.745-24,24-24s24,10.745,24,24C351.679,264.236,340.934,274.981,327.679,274.981z M391.679,274.981
		c-13.255,0-24-10.745-24-24c0-13.255,10.745-24,24-24s24,10.745,24,24C415.679,264.236,404.934,274.981,391.679,274.981z"/>
	<path style="fill:#353535;" d="M127.679,218.981h16v16h-16V218.981z"/>
	<path style="fill:#353535;" d="M159.679,218.981h96v16h-96V218.981z"/>
	<path style="fill:#353535;" d="M127.679,250.981h128v16h-128V250.981z"/>
	<path style="fill:#353535;" d="M423.679,322.981h-288c-4.418,0-8,3.582-8,8v48c0,4.418,3.582,8,8,8h288c4.418,0,8-3.582,8-8v-48
		C431.679,326.563,428.098,322.981,423.679,322.981z M415.679,370.981h-272v-32h272V370.981z"/>
</g>
<g>
</g>
<g>
</g>
<g>
</g>
<g>
</g>
<g>
</g>
<g>
</g>
<g>
</g>
<g>
</g>
<g>
</g>
<g>
</g>
<g>
</g>
<g>
</g>
<g>
</g>
<g>
</g>
<g>
</g>
</svg>
