<svg id="Layer_1" enable-background="new 0 0 497.98 497.98" height="512" viewBox="0 0 497.98 497.98" width="512" xmlns="http://www.w3.org/2000/svg"><path d="m293.703 34.297c-43.695-25.228-99.479-10.286-124.711 33.417l-156.598 271.235c-40.412 69.995 24.347 154.827 102.692 133.831 23.555-6.312 43.242-21.418 55.435-42.537l156.597-271.235c25.171-43.595 10.18-99.54-33.415-124.711z" fill="#f4dc4d"/><path d="m225.925 334.281c110.573-191.518 102.559-177.28 105.178-183.005l-48.237-83.548c-12.281-21.272-32.33-36.748-56.965-42.907-24.997 6.262-44.842 21.992-56.909 42.894l-48.244 83.561c2.854 6.241-4.266-6.556 105.177 183.005z" fill="#e2c63b"/><path d="m60.251 256.058-47.857 82.89c-35.212 60.988 9.402 136.981 78.915 136.981 31.226 0 62.08-16.013 79.212-45.687l40.267-69.745c-20.503-67.272-84.398-108.647-150.537-104.439z" fill="#e2c63b"/><path d="m179.642 360.967c-13.058-48.734-63.067-77.617-111.813-64.555-78.373 21-91.981 126.853-22.018 167.248 69.801 40.299 154.944-23.896 133.831-102.693z" fill="#a0ed83"/><path d="m485.661 338.949-156.598-271.235c-12.192-21.119-31.88-36.225-55.435-42.537-78.369-21.003-143.086 63.867-102.692 133.831l156.598 271.235c25.221 43.685 81 58.654 124.711 33.417 43.595-25.171 58.586-81.116 33.416-124.711z" fill="#86bff2"/><path d="m179.642 360.967c-13.058-48.734-63.067-77.617-111.813-64.555-78.373 21-91.981 126.853-22.018 167.248 69.801 40.299 154.944-23.896 133.831-102.693z" fill="#a0ed83"/><path d="m485.661 338.949-156.598-271.235c-35.303-61.149-124.923-60.878-160.071 0l-156.598 271.235c-35.212 60.988 9.402 136.981 78.915 136.981 31.226 0 62.08-16.013 79.212-45.687l78.506-135.977 78.506 135.977c17.105 29.628 47.937 45.687 79.212 45.687 69.466 0 114.146-75.961 78.916-136.981zm-342.852 75.294c-13.822 23.942-41.921 34.781-67.794 27.341-37.155-10.795-54.038-53.502-34.908-86.636 16.384-28.379 52.612-38.092 80.998-21.704 28.38 16.386 38.091 52.615 21.704 80.999zm34.695-60.094c-14.906-42.335-58.535-67.563-102.701-59.294l88.413-153.135c3.939 12.044 1.172 5.946 67.337 120.547zm258.741 81.798c-28.377 16.386-64.611 6.68-80.998-21.704l-156.598-271.235c-29.882-51.757 27.723-110.637 79.054-80.998 19.208 11.09 13.923 4.861 180.245 292.938 16.348 28.315 6.611 64.651-21.703 80.999z"/></svg>