<svg id="Icon_Set" enable-background="new 0 0 64 64" height="512" viewBox="0 0 64 64" width="512" xmlns="http://www.w3.org/2000/svg"><path d="m35 8v6l-4 4 4 4v6c0 .552.448 1 1 1h20c.552 0 1-.448 1-1v-20c0-.552-.448-1-1-1h-20c-.552 0-1 .448-1 1z" fill="#c2c2c2"/><path d="m56 29.5h-20c-.827 0-1.5-.673-1.5-1.5v-5.793l-3.854-3.854c-.195-.195-.195-.512 0-.707l3.854-3.854v-5.792c0-.827.673-1.5 1.5-1.5h20c.827 0 1.5.673 1.5 1.5v20c0 .827-.673 1.5-1.5 1.5zm-24.293-11.5 3.646 3.646c.094.094.147.221.147.354v6c0 .276.224.5.5.5h20c.276 0 .5-.224.5-.5v-20c0-.276-.224-.5-.5-.5h-20c-.276 0-.5.224-.5.5v6c0 .133-.053.26-.146.354zm3.293-4h.01z" fill="#212a41"/><circle cx="16" cy="18" fill="#b7c0d7" r="12"/><path d="m16 30.5c-6.893 0-12.5-5.607-12.5-12.5s5.607-12.5 12.5-12.5 12.5 5.607 12.5 12.5-5.607 12.5-12.5 12.5zm0-24c-6.341 0-11.5 5.159-11.5 11.5s5.159 11.5 11.5 11.5 11.5-5.159 11.5-11.5-5.159-11.5-11.5-11.5z" fill="#212a41"/><circle cx="16" cy="18" fill="#f9ac2f" r="8"/><path d="m16 26.5c-4.687 0-8.5-3.813-8.5-8.5s3.813-8.5 8.5-8.5 8.5 3.813 8.5 8.5-3.813 8.5-8.5 8.5zm0-16c-4.136 0-7.5 3.364-7.5 7.5s3.364 7.5 7.5 7.5 7.5-3.364 7.5-7.5-3.364-7.5-7.5-7.5z" fill="#212a41"/><circle cx="16" cy="18" fill="#f9ac2f" r="4"/><path d="m16 22.5c-2.481 0-4.5-2.019-4.5-4.5s2.019-4.5 4.5-4.5 4.5 2.019 4.5 4.5-2.019 4.5-4.5 4.5zm0-8c-1.93 0-3.5 1.57-3.5 3.5s1.57 3.5 3.5 3.5 3.5-1.57 3.5-3.5-1.57-3.5-3.5-3.5z" fill="#212a41"/><path d="m28.336 28.027c-1.253-.203-2.336.758-2.336 1.973 0-1.105-.895-2-2-2s-2 .895-2 2c0-1.105-.895-2-2-2s-2 .895-2 2v-9.893c0-.996-.681-1.92-1.664-2.08-1.253-.203-2.336.758-2.336 1.973v14h-2c-1.105 0-2 .895-2 2v2.127c0 1.187.527 2.313 1.439 3.073l3.841 3.2c.456.38.72.943.72 1.536v1.064h14v-16.893c0-.996-.681-1.92-1.664-2.08z" fill="#e0c8a4"/><path d="m30 47.5h-14c-.276 0-.5-.224-.5-.5v-1.063c0-.446-.197-.866-.54-1.152l-3.841-3.201c-1.029-.858-1.619-2.118-1.619-3.458v-2.126c0-1.378 1.122-2.5 2.5-2.5h1.5v-13.5c0-.734.321-1.429.881-1.905s1.304-.677 2.035-.562c1.188.193 2.084 1.299 2.084 2.573v7.894c.418-.314.938-.501 1.5-.501.817 0 1.543.394 2 1.001.457-.607 1.183-1.001 2-1.001.816 0 1.543.394 2 1 .11-.147.238-.284.381-.405.56-.476 1.302-.677 2.035-.562 1.188.193 2.084 1.299 2.084 2.573v16.895c0 .276-.224.5-.5.5zm-13.5-1h13v-16.393c0-.789-.535-1.471-1.244-1.586-.451-.073-.885.046-1.227.336-.336.286-.529.703-.529 1.143 0 .276-.224.5-.5.5s-.5-.224-.5-.5c0-.827-.673-1.5-1.5-1.5s-1.5.673-1.5 1.5c0 .276-.224.5-.5.5s-.5-.224-.5-.5c0-.827-.673-1.5-1.5-1.5s-1.5.673-1.5 1.5c0 .276-.224.5-.5.5s-.5-.224-.5-.5v-9.893c0-.789-.535-1.471-1.244-1.586-.448-.071-.886.046-1.227.336-.336.286-.529.703-.529 1.143v14c0 .276-.224.5-.5.5h-2c-.827 0-1.5.673-1.5 1.5v2.126c0 1.042.459 2.022 1.259 2.688l3.841 3.201c.571.477.899 1.176.899 1.92v.565z" fill="#212a41"/><path d="m17.889 45.5c-.226 0-.431-.154-.486-.383-.176-.735-.579-1.381-1.163-1.868l-3.841-3.202c-.571-.476-.899-1.176-.899-1.92v-2.127c0-.276.224-.5.5-.5s.5.224.5.5v2.126c0 .447.197.866.54 1.152l3.841 3.202c.751.626 1.268 1.457 1.495 2.403.064.269-.101.539-.37.603-.039.01-.078.014-.117.014z" fill="#fee6c2"/><path d="m32 48v9c0 .552-.448 1-1 1h-16c-.552 0-1-.448-1-1v-9c0-.552.448-1 1-1h16c.552 0 1 .448 1 1z" fill="#0079a8"/><path d="m31 58.5h-16c-.827 0-1.5-.673-1.5-1.5v-9c0-.827.673-1.5 1.5-1.5h16c.827 0 1.5.673 1.5 1.5v9c0 .827-.673 1.5-1.5 1.5zm-16-11c-.276 0-.5.224-.5.5v9c0 .276.224.5.5.5h16c.276 0 .5-.224.5-.5v-9c0-.276-.224-.5-.5-.5z" fill="#212a41"/><path d="m17 57v-9c0-.552.448-1 1-1h-3c-.552 0-1 .448-1 1v9c0 .552.448 1 1 1h3c-.552 0-1-.448-1-1z" fill="#005b8a"/><g fill="#212a41"><path d="m18 58.5h-3c-.827 0-1.5-.673-1.5-1.5v-9c0-.827.673-1.5 1.5-1.5h3c.276 0 .5.224.5.5s-.224.5-.5.5-.5.224-.5.5v9c0 .276.224.5.5.5s.5.224.5.5-.224.5-.5.5zm-3-11c-.276 0-.5.224-.5.5v9c0 .276.224.5.5.5h1.585c-.055-.156-.085-.325-.085-.5v-9c0-.175.03-.344.085-.5z"/><path d="m22 34.5c-.276 0-.5-.224-.5-.5v-4c0-.276.224-.5.5-.5s.5.224.5.5v4c0 .276-.224.5-.5.5z"/><path d="m18 34.5c-.276 0-.5-.224-.5-.5v-4c0-.276.224-.5.5-.5s.5.224.5.5v4c0 .276-.224.5-.5.5z"/><path d="m26 34.5c-.276 0-.5-.224-.5-.5v-4c0-.276.224-.5.5-.5s.5.224.5.5v4c0 .276-.224.5-.5.5z"/><path d="m14 36.5c-.276 0-.5-.224-.5-.5v-2c0-.276.224-.5.5-.5s.5.224.5.5v2c0 .276-.224.5-.5.5z"/></g><path d="m38 8v6l-4 4 4 4v6c0 .552.448 1 1 1h20c.552 0 1-.448 1-1v-20c0-.552-.448-1-1-1h-20c-.552 0-1 .448-1 1z" fill="#e0e0e0"/><path d="m59 29.5h-20c-.827 0-1.5-.673-1.5-1.5v-5.793l-3.854-3.854c-.195-.195-.195-.512 0-.707l3.854-3.854v-5.792c0-.827.673-1.5 1.5-1.5h20c.827 0 1.5.673 1.5 1.5v20c0 .827-.673 1.5-1.5 1.5zm-24.293-11.5 3.646 3.646c.094.094.147.221.147.354v6c0 .276.224.5.5.5h20c.276 0 .5-.224.5-.5v-20c0-.276-.224-.5-.5-.5h-20c-.276 0-.5.224-.5.5v6c0 .133-.053.26-.146.354zm3.293-4h.01z" fill="#212a41"/><path d="m40 27.5c-.276 0-.5-.224-.5-.5v-5c0-.395-.16-.781-.439-1.061l-2.585-2.586c-.195-.195-.195-.512 0-.707l2.585-2.586c.279-.279.439-.665.439-1.06v-5c0-.276.224-.5.5-.5s.5.224.5.5v5c0 .667-.26 1.295-.732 1.768l-2.232 2.232 2.232 2.232c.472.473.732 1.101.732 1.768v5c0 .276-.224.5-.5.5z" fill="#fefefe"/><path d="m55.01 13.757c-.586-.586-1.536-.586-2.121 0l-5.303 5.303-2.475-2.475c-.586-.586-1.536-.586-2.121 0-.586.586-.586 1.535 0 2.121l3.536 3.536c.586.586 1.536.586 2.121 0l6.364-6.364c.585-.585.585-1.535-.001-2.121z" fill="#bed38e"/><path d="m47.586 23.182c-.534 0-1.037-.208-1.414-.586l-3.536-3.536c-.378-.378-.586-.88-.586-1.414 0-.535.208-1.037.586-1.414.754-.756 2.072-.756 2.828 0l2.122 2.121 4.95-4.95c.779-.78 2.049-.78 2.828 0 .378.378.586.88.586 1.414 0 .535-.208 1.037-.586 1.414l-6.364 6.365c-.377.378-.88.586-1.414.586zm-3.536-6.536c-.267 0-.518.104-.707.293s-.293.44-.293.707.104.518.293.707l3.536 3.536c.378.378 1.036.378 1.414 0l6.364-6.364c.189-.189.293-.44.293-.707s-.104-.518-.293-.707c-.378-.378-1.036-.378-1.414 0l-5.303 5.303c-.195.195-.512.195-.707 0l-2.475-2.475c-.19-.189-.441-.293-.708-.293z" fill="#212a41"/><path d="m58 27.5c-.276 0-.5-.224-.5-.5v-18c0-.276.224-.5.5-.5s.5.224.5.5v18c0 .276-.224.5-.5.5z" fill="#c2c2c2"/><path d="m30 56.5c-.276 0-.5-.224-.5-.5v-7c0-.276.224-.5.5-.5s.5.224.5.5v7c0 .276-.224.5-.5.5z" fill="#005b8a"/></svg>