<svg height="512" viewBox="0 0 512 512" width="512" xmlns="http://www.w3.org/2000/svg"><g><g fill="#57a4ff"><path d="m496 76v28h-480v-28a19.994 19.994 0 0 1 20-20h440a19.994 19.994 0 0 1 20 20z"/><rect height="64" rx="12" width="64" x="128" y="152"/><rect height="64" rx="12" width="64" x="128" y="248"/><rect height="64" rx="12" width="64" x="128" y="344"/><rect height="64" rx="12" width="64" x="224" y="152"/><rect height="64" rx="12" width="64" x="224" y="248"/><rect height="64" rx="12" width="64" x="224" y="344"/><rect height="64" rx="12" width="64" x="320" y="152"/><rect height="64" rx="12" width="64" x="320" y="248"/><rect height="64" rx="12" width="64" x="320" y="344"/><rect height="64" rx="12" width="64" x="224" y="152"/><rect height="64" rx="12" width="64" x="224" y="248"/><rect height="64" rx="12" width="64" x="224" y="344"/><rect height="64" rx="12" width="64" x="320" y="152"/><rect height="64" rx="12" width="64" x="320" y="248"/><rect height="64" rx="12" width="64" x="320" y="344"/><rect height="64" rx="12" width="64" x="128" y="152"/><rect height="64" rx="12" width="64" x="128" y="248"/><rect height="64" rx="12" width="64" x="128" y="344"/></g><g fill="#004fac"><path d="m476 48h-440a28.031 28.031 0 0 0 -28 28v360a28.031 28.031 0 0 0 28 28h440a28.031 28.031 0 0 0 28-28v-360a28.031 28.031 0 0 0 -28-28zm12 388a12.01 12.01 0 0 1 -12 12h-440a12.01 12.01 0 0 1 -12-12v-324h464zm0-340h-464v-20a12.01 12.01 0 0 1 12-12h440a12.01 12.01 0 0 1 12 12z"/><path d="m40 88h8a8 8 0 0 0 0-16h-8a8 8 0 0 0 0 16z"/><path d="m72 88h8a8 8 0 0 0 0-16h-8a8 8 0 0 0 0 16z"/><path d="m104 88h8a8 8 0 0 0 0-16h-8a8 8 0 0 0 0 16z"/><path d="m276 144h-40a20.023 20.023 0 0 0 -20 20v40a20.023 20.023 0 0 0 20 20h40a20.023 20.023 0 0 0 20-20v-40a20.023 20.023 0 0 0 -20-20zm4 60a4 4 0 0 1 -4 4h-40a4 4 0 0 1 -4-4v-40a4 4 0 0 1 4-4h40a4 4 0 0 1 4 4z"/><path d="m276 240h-40a20.023 20.023 0 0 0 -20 20v40a20.023 20.023 0 0 0 20 20h40a20.023 20.023 0 0 0 20-20v-40a20.023 20.023 0 0 0 -20-20zm4 60a4 4 0 0 1 -4 4h-40a4 4 0 0 1 -4-4v-40a4 4 0 0 1 4-4h40a4 4 0 0 1 4 4z"/><path d="m276 336h-40a20.023 20.023 0 0 0 -20 20v40a20.023 20.023 0 0 0 20 20h40a20.023 20.023 0 0 0 20-20v-40a20.023 20.023 0 0 0 -20-20zm4 60a4 4 0 0 1 -4 4h-40a4 4 0 0 1 -4-4v-40a4 4 0 0 1 4-4h40a4 4 0 0 1 4 4z"/><path d="m372 144h-40a20.023 20.023 0 0 0 -20 20v40a20.023 20.023 0 0 0 20 20h40a20.023 20.023 0 0 0 20-20v-40a20.023 20.023 0 0 0 -20-20zm4 60a4 4 0 0 1 -4 4h-40a4 4 0 0 1 -4-4v-40a4 4 0 0 1 4-4h40a4 4 0 0 1 4 4z"/><path d="m372 240h-40a20.023 20.023 0 0 0 -20 20v40a20.023 20.023 0 0 0 20 20h40a20.023 20.023 0 0 0 20-20v-40a20.023 20.023 0 0 0 -20-20zm4 60a4 4 0 0 1 -4 4h-40a4 4 0 0 1 -4-4v-40a4 4 0 0 1 4-4h40a4 4 0 0 1 4 4z"/><path d="m372 336h-40a20.023 20.023 0 0 0 -20 20v40a20.023 20.023 0 0 0 20 20h40a20.023 20.023 0 0 0 20-20v-40a20.023 20.023 0 0 0 -20-20zm4 60a4 4 0 0 1 -4 4h-40a4 4 0 0 1 -4-4v-40a4 4 0 0 1 4-4h40a4 4 0 0 1 4 4z"/><path d="m180 144h-40a20.023 20.023 0 0 0 -20 20v40a20.023 20.023 0 0 0 20 20h40a20.023 20.023 0 0 0 20-20v-40a20.023 20.023 0 0 0 -20-20zm4 60a4 4 0 0 1 -4 4h-40a4 4 0 0 1 -4-4v-40a4 4 0 0 1 4-4h40a4 4 0 0 1 4 4z"/><path d="m180 240h-40a20.023 20.023 0 0 0 -20 20v40a20.023 20.023 0 0 0 20 20h40a20.023 20.023 0 0 0 20-20v-40a20.023 20.023 0 0 0 -20-20zm4 60a4 4 0 0 1 -4 4h-40a4 4 0 0 1 -4-4v-40a4 4 0 0 1 4-4h40a4 4 0 0 1 4 4z"/><path d="m180 336h-40a20.023 20.023 0 0 0 -20 20v40a20.023 20.023 0 0 0 20 20h40a20.023 20.023 0 0 0 20-20v-40a20.023 20.023 0 0 0 -20-20zm4 60a4 4 0 0 1 -4 4h-40a4 4 0 0 1 -4-4v-40a4 4 0 0 1 4-4h40a4 4 0 0 1 4 4z"/></g></g></svg>