<svg height="512" viewBox="0 0 512 512" width="512" xmlns="http://www.w3.org/2000/svg"><g id="Filled_outline" data-name="Filled outline"><path d="m448 216c0 1.19-.01 2.37-.04 3.55-1.89 104.4-87.11 188.45-191.96 188.45-106.04 0-192-85.96-192-192q0-8.46.72-16.73a192.005 192.005 0 0 1 383.28 16.73z" fill="#348fd9"/><g fill="#459de6"><path d="m296 168h-32v56h-72v48l-127.28-72.73a191.36 191.36 0 0 1 55.76-119.27h31.52l32 64h32v-32h48z"/><path d="m192 272h88v24h48l-40 80h-64v-56h-32z"/><path d="m352.18 49.8-48.18 54.2-24-40h-40l-21.06-36.42a192.555 192.555 0 0 1 133.24 22.22z"/><path d="m448 216c0 1.19-.01 2.37-.04 3.55l-39.96 52.45h-40v-72h-32v-56l62.71-56.44a191.258 191.258 0 0 1 49.29 128.44z"/></g><path d="m128 320h-80v-96h80l24 56h-24z" fill="#fec9a3"/><path d="m144 208a16 16 0 0 1 -16 16h-48l-32 32v-32a32 32 0 0 1 32-32h64z" fill="#f98500"/><path d="m160 344v144h-136v-144a23.989 23.989 0 0 1 20.9-23.79 22.627 22.627 0 0 1 3.1-.21h88a24.006 24.006 0 0 1 24 24z" fill="#2f486e"/><path d="m232 456h-56v-48l32-8 24 8z" fill="#feb784"/><path d="m376 320h64v-82.643a45.357 45.357 0 0 0 -45.357-45.357 45.356 45.356 0 0 0 -43.758 33.423l-14.885 54.577h24v24a16 16 0 0 0 16 16z" fill="#fec9a3"/><path d="m360 224h48l32 32v-32a32 32 0 0 0 -32-32h-48a16 16 0 0 0 -16 16 16 16 0 0 0 16 16z" fill="#7a432a"/><path d="m360 280h24a16 16 0 0 1 16 16v24a0 0 0 0 1 0 0h-24a16 16 0 0 1 -16-16v-24a0 0 0 0 1 0 0z" fill="#7a432a"/><path d="m320.34 341.064-24.34 66.936h-32v48h40.936a32 32 0 0 0 30.358-21.881l16.706-50.119v104h96v-32h40v-104a32 32 0 0 0 -32-32h-105.586a32 32 0 0 0 -30.074 21.064z" fill="#2f486e"/><path d="m232 456h32v-48h-32l-24 8v24l24-8z" fill="#fec9a3"/><path d="m440 320-32 57.6-8 14.4-8-14.4-32-57.6z" fill="#e0e0de"/><path d="m448 456h40v32h-40z" fill="#fec9a3"/><path d="m128 320-40 64-43.1-63.79a22.627 22.627 0 0 1 3.1-.21z" fill="#e0e0de"/><path d="m120 408-75.24-87.78a24.007 24.007 0 0 0 -20.76 23.78v36l54.41 64.612a32 32 0 0 0 24.478 11.388h73.112v-48z" fill="#34507b"/><path d="m328 144v32h16v-28.437l53.973-48.577a183.761 183.761 0 0 1 37.662 76.982l15.62-3.465c2.312-.513-15.064-43.451-16.945-47.144-33.753-66.278-103.896-109.359-178.31-109.359a200.152 200.152 0 0 0 -193.7 150.005l15.5 3.995a183.759 183.759 0 0 1 46.061-82h23.2l29.789 59.578a8 8 0 0 0 7.15 4.422h32a8 8 0 0 0 8-8v-24h35.357l22.857 40h-18.214a8 8 0 0 0 -8 8v48h-64a8 8 0 0 0 -8 8v34.215l-8.17-4.668-7.938 13.892 16.108 9.2v43.361a8 8 0 0 0 8 8h24v48a8 8 0 0 0 8 8h64v-16h-56v-48a8 8 0 0 0 -8-8h-24v-32h72v16a8 8 0 0 0 8 8h36v-16h-28v-16a8 8 0 0 0 -8-8h-80v-32h64a8 8 0 0 0 8-8v-48h24a8 8 0 0 0 6.946-11.969l-32-56a8 8 0 0 0 -6.946-4.031h-48a8 8 0 0 0 -8 8v24h-19.056l-29.789-59.578a8 8 0 0 0 -7.155-4.422h-10.563a182.529 182.529 0 0 1 73.485-35.388l18.153 31.393a8 8 0 0 0 6.925 3.995h35.471l21.669 36.116a8 8 0 0 0 6.116 3.849c.249.024.5.035.745.035a8 8 0 0 0 5.978-2.685l43.76-49.227a183.962 183.962 0 0 1 33.541 27l-56.632 50.969a8 8 0 0 0 -2.648 5.943zm-22.743-53.455-18.4-30.661a8 8 0 0 0 -6.857-3.884h-35.385l-12.946-22.388a184.149 184.149 0 0 1 107.831 18.415zm-170.857 34.249-12.8-9.611a169.4 169.4 0 0 1 15.82-18.183l11.292 11.335a153.438 153.438 0 0 0 -14.312 16.459zm-21.19 2.66 13.59 8.446a151.32 151.32 0 0 0 -15.6 33.725l-15.24-4.876a167.4 167.4 0 0 1 17.245-37.295zm-64.094 26.252-15.322-4.606a232.283 232.283 0 0 1 97.914-129.03l8.584 13.5a216.28 216.28 0 0 0 -91.176 120.136zm-19.777 12.587 15.632 3.414c-1.109 5.079-2.046 10.269-2.783 15.425l-15.839-2.264c.793-5.541 1.798-11.117 2.99-16.575zm428.481 126.849a215.828 215.828 0 0 0 -52.489-233.208l11.063-11.559a232.279 232.279 0 0 1 56.37 250.483zm-52.678-254.858-10.292 12.251c-5.009-4.208-10.269-8.235-15.635-11.968l9.138-13.134c5.762 4.009 11.411 8.332 16.789 12.851zm-301.142 225.716h-16v-16h16zm296 0h-16v-16h16zm-376 232h136a8 8 0 0 0 8-8v-8h-136v-78.08l40.291 47.845a39.914 39.914 0 0 0 30.597 14.235h202.048a39.949 39.949 0 0 0 37.947-27.351l1.117-3.349v54.7a8 8 0 0 0 8 8h136a8 8 0 0 0 8-8v-96h-16v56h-24v-80h-16v112h-80v-96a8 8 0 0 0 -15.589-2.53l-16.711 50.119a23.97 23.97 0 0 1 -22.764 16.411h-32.936v-32h24a8 8 0 0 0 7.519-5.266l24.34-66.936a24.073 24.073 0 0 1 22.555-15.798h4.879l37.714 67.885a8 8 0 0 0 13.986 0l37.714-67.885h11.293a24.027 24.027 0 0 1 24 24v24h16v-24a40.045 40.045 0 0 0 -40-40h-8v-88a40.045 40.045 0 0 0 -40-40h-48a23.983 23.983 0 0 0 -17.215 40.7l-14.5 53.2a8 8 0 0 0 7.715 10.1h16v16a23.9 23.9 0 0 0 1.081 7.129c.091.294.193.582.295.871h-2.962a40.122 40.122 0 0 0 -37.592 26.33l-22.422 61.67h-57.1l-22.768-7.589a7.992 7.992 0 0 0 -4.47-.172l-31.047 7.761h-7.015v-56a32.036 32.036 0 0 0 -32-32v-24h16a8 8 0 0 0 7.353-11.151l-20.366-47.522a24.021 24.021 0 0 0 13.013-21.327v-16a8 8 0 0 0 -8-8h-64a40.045 40.045 0 0 0 -40 40v73h16v-37.687l27.313-27.313h39.412l17.143 40h-11.868a8 8 0 0 0 -8 8v7.132c-7.047-1.549-13.023-5.088-16.218-9.881l-1.126-1.689-13.312 8.876 1.126 1.688c6.084 9.127 16.992 15.378 29.53 17.265v8.609h-72a31.01 31.01 0 0 0 -4.309.292 32.088 32.088 0 0 0 -27.691 31.708v144a8 8 0 0 0 8 8zm432-32h24v16h-24zm-64-102.873-18.4-33.127h18.4zm0-49.127h-16a8.009 8.009 0 0 1 -8-8v-16h16a8.009 8.009 0 0 1 8 8zm16 49.127v-33.127h18.4zm-48-161.127h48a24.027 24.027 0 0 1 24 24v12.687l-18.343-18.344a8 8 0 0 0 -5.657-2.343h-48a8 8 0 0 1 0-16zm-13.527 72 10.943-40.141a24.235 24.235 0 0 0 2.584.141h44.687l27.313 27.313v52.687h-24v-16a24.027 24.027 0 0 0 -24-24zm-130.473 149.766 17.3-5.766h22.7v32h-16v-16a8 8 0 0 0 -10.53-7.589l-13.47 4.489zm-32-7.52 19.6-4.9a7.985 7.985 0 0 0 -3.6 6.654v24a8 8 0 0 0 10.53 7.589l13.47-4.489v4.9h-40zm-48-206.246a8.009 8.009 0 0 1 -8 8h-48a8 8 0 0 0 -5.657 2.343l-18.343 18.344v-12.687a24.027 24.027 0 0 1 24-24h56zm-3.566 120h3.566a16.019 16.019 0 0 1 16 16v56h-28.32l-20.961-24.454zm-36.434.086 17.542-.046-17.542 28.067zm-16 .042v20.913l-17.885-20.866zm-48 15.872a16.045 16.045 0 0 1 9.931-14.787l72 83.994a8 8 0 0 0 6.069 2.793h48v32h-65.112a23.952 23.952 0 0 1 -18.359-8.541l-52.529-62.378zm376 88h-16v-16h16zm-16 16h16v16h-16z"/></g></svg>