<?xml version="1.0" encoding="iso-8859-1"?>
<!-- Generator: Adobe Illustrator 19.0.0, SVG Export Plug-In . SVG Version: 6.00 Build 0)  -->
<svg version="1.1" id="Capa_1" xmlns="http://www.w3.org/2000/svg" xmlns:xlink="http://www.w3.org/1999/xlink" x="0px" y="0px"
	 viewBox="0 0 348 348" style="enable-background:new 0 0 348 348;" xml:space="preserve">
<g>
	<path style="fill:#F1A900;" d="M341.6,92c0,22.8-22,41.2-48.8,41.2H55.6c-27.2,0-48.8-18.4-48.8-41.2l0,0c0-22.8,22-41.2,48.8-41.2
		h236.8C319.6,50.8,341.6,69.2,341.6,92L341.6,92z"/>
	<path style="fill:#F1A900;" d="M341.6,174c0,22.8-22,41.2-48.8,41.2H55.6c-27.2,0-48.8-18.4-48.8-41.2l0,0
		c0-22.8,22-41.2,48.8-41.2h236.8C319.6,132.8,341.6,151.2,341.6,174L341.6,174z"/>
	<path style="fill:#F1A900;" d="M341.6,256c0,22.8-22,41.2-48.8,41.2H55.6c-27.2,0-48.8-18.4-48.8-41.2l0,0
		c0-22.8,22-41.2,48.8-41.2h236.8C319.6,215.2,341.6,233.6,341.6,256L341.6,256z"/>
</g>
<g>
	<circle style="fill:#3D1F20;" cx="294" cy="92" r="14"/>
	<circle style="fill:#3D1F20;" cx="251.2" cy="92" r="14"/>
	<path style="fill:#3D1F20;" d="M62.4,98.4h96.8c3.6,0,6.4-2.8,6.4-6.4c0-3.6-2.8-6.4-6.4-6.4H62.4c-3.6,0-6.4,2.8-6.4,6.4
		C56,95.6,58.8,98.4,62.4,98.4z"/>
	<circle style="fill:#3D1F20;" cx="294" cy="174" r="14"/>
	<circle style="fill:#3D1F20;" cx="251.2" cy="174" r="14"/>
	<path style="fill:#3D1F20;" d="M159.2,167.6H62.4c-3.6,0-6.4,2.8-6.4,6.4s2.8,6.4,6.4,6.4h96.8c3.6,0,6.4-2.8,6.4-6.4
		C165.6,170.4,162.8,167.6,159.2,167.6z"/>
	<path style="fill:#3D1F20;" d="M348,174c0-17.6-11.2-32.8-27.6-41.2c16.4-8.4,27.6-23.6,27.6-41.2c0-26.4-24.8-47.6-55.6-47.6H55.6
		C24.8,44,0,65.2,0,91.6c0,17.6,11.2,32.8,27.6,41.2C11.2,141.2,0,156.4,0,174s11.2,32.8,27.6,41.2C11.2,223.6,0,238.8,0,256.4
		C0,282.8,24.8,304,55.6,304h236.8c30.8,0,55.6-21.2,55.6-47.6c0-17.6-11.2-32.8-27.6-41.2C336.8,206.8,348,191.6,348,174z M13.2,92
		c0-19.2,19.2-34.4,42.4-34.4h236.8c23.2,0,42.4,15.6,42.4,34.4c0,19.2-19.2,34.4-42.4,34.4H55.6C32,126.4,13.2,110.8,13.2,92z
		 M334.8,256c0,19.2-19.2,34.4-42.4,34.4H55.6c-23.2,0-42.4-15.6-42.4-34.4c0-19.2,19.2-34.4,42.4-34.4h236.8
		C316,221.6,334.8,237.2,334.8,256z M292.4,208.4H55.6c-23.2,0-42.4-15.6-42.4-34.4c0-19.2,19.2-34.4,42.4-34.4h236.8
		c23.2,0,42.4,15.6,42.4,34.4C334.8,193.2,316,208.4,292.4,208.4z"/>
	<circle style="fill:#3D1F20;" cx="294" cy="256" r="14"/>
	<circle style="fill:#3D1F20;" cx="251.2" cy="256" r="14"/>
	<path style="fill:#3D1F20;" d="M159.2,249.6H62.4c-3.6,0-6.4,2.8-6.4,6.4s2.8,6.4,6.4,6.4h96.8c3.6,0,6.4-2.8,6.4-6.4
		C165.6,252.4,162.8,249.6,159.2,249.6z"/>
</g>
<g>
</g>
<g>
</g>
<g>
</g>
<g>
</g>
<g>
</g>
<g>
</g>
<g>
</g>
<g>
</g>
<g>
</g>
<g>
</g>
<g>
</g>
<g>
</g>
<g>
</g>
<g>
</g>
<g>
</g>
</svg>
