<svg height="512pt" viewBox="0 -116 512 512" width="512pt" xmlns="http://www.w3.org/2000/svg"><path d="m330.324219 239.484375h-313.808594c-9.121094 0-16.515625-7.394531-16.515625-16.515625v-206.453125c0-9.121094 7.394531-16.515625 16.515625-16.515625h313.804687c9.125 0 16.519532 7.394531 16.519532 16.515625v206.453125c0 9.121094-7.394532 16.515625-16.515625 16.515625zm0 0" fill="#dad8db"/><path d="m16.515625 0c-9.121094 0-16.515625 7.394531-16.515625 16.515625v206.453125c0 9.121094 7.394531 16.515625 16.515625 16.515625h313.804687c9.121094 0 16.519532-7.394531 16.519532-16.515625h-313.808594c-9.121094 0-16.515625-7.394531-16.515625-16.515625zm0 0" fill="#c8c5c9"/><path d="m330.324219 0h-313.808594c-9.121094 0-16.515625 7.394531-16.515625 16.515625v189.933594h346.839844v-189.933594c0-9.121094-7.394532-16.515625-16.515625-16.515625zm0 0" fill="#5d5360"/><path d="m214.710938 239.484375h-82.582032l-8.257812 33.03125h99.097656zm0 0" fill="#b6b1b7"/><path d="m322.066406 189.933594h-297.292968c-4.558594 0-8.257813-3.695313-8.257813-8.257813v-156.902343c0-4.558594 3.699219-8.257813 8.257813-8.257813h297.289062c4.5625 0 8.257812 3.699219 8.257812 8.257813v156.902343c.003907 4.5625-3.695312 8.257813-8.253906 8.257813zm0 0" fill="#a4ccff"/><path d="m16.515625 0v206.453125h-16.515625v-189.9375c0-9.121094 7.394531-16.515625 16.515625-16.515625zm0 0" fill="#4b3f4e"/><path d="m239.484375 280.773438h-132.128906c-4.566407 0-8.257813-3.695313-8.257813-8.257813s3.691406-8.257813 8.257813-8.257813h132.128906c4.566406 0 8.257813 3.695313 8.257813 8.257813s-3.695313 8.257813-8.257813 8.257813zm0 0" fill="#dad8db"/><path d="m429.417969 272.515625h-132.128907c-9.121093 0-16.515624-7.394531-16.515624-16.515625v-189.9375c0-9.121094 7.394531-16.515625 16.515624-16.515625h132.128907c9.121093 0 16.515625 7.394531 16.515625 16.515625v189.9375c0 9.121094-7.394532 16.515625-16.515625 16.515625zm0 0" fill="#c8c5c9"/><path d="m421.160156 239.484375h-115.613281c-4.558594 0-8.257813-3.699219-8.257813-8.257813v-156.90625c0-4.558593 3.699219-8.257812 8.257813-8.257812h115.613281c4.5625 0 8.257813 3.699219 8.257813 8.257812v156.90625c0 4.558594-3.695313 8.257813-8.257813 8.257813zm0 0" fill="#ccf49f"/><path d="m297.289062 239.484375v-189.9375c-9.121093 0-16.515624 7.394531-16.515624 16.515625v189.9375c0 9.121094 7.394531 16.515625 16.515624 16.515625h132.128907c9.121093 0 16.515625-7.394531 16.515625-16.515625h-132.128906c-9.121094 0-16.515626-7.394531-16.515626-16.515625zm0 0" fill="#b6b1b7"/><path d="m429.417969 272.515625h66.066406c9.121094 0 16.515625-7.394531 16.515625-16.515625v-123.871094c0-9.121094-7.394531-16.515625-16.515625-16.515625h-66.066406c-9.121094 0-16.515625 7.394531-16.515625 16.515625v123.871094c0 9.121094 7.394531 16.515625 16.515625 16.515625zm0 0" fill="#dad8db"/><path d="m487.226562 132.128906h-49.546874c-4.5625 0-8.257813 3.695313-8.257813 8.257813v90.839843c0 4.558594 3.695313 8.257813 8.257813 8.257813h49.546874c4.558594 0 8.257813-3.699219 8.257813-8.257813v-90.839843c0-4.5625-3.699219-8.257813-8.257813-8.257813zm0 0" fill="#ffe07d"/><path d="m429.417969 239.484375v-123.871094c-9.121094 0-16.515625 7.394531-16.515625 16.515625v123.871094c0 9.121094 7.394531 16.515625 16.515625 16.515625h66.066406c9.121094 0 16.515625-7.394531 16.515625-16.515625h-66.066406c-9.121094 0-16.515625-7.394531-16.515625-16.515625zm0 0" fill="#c8c5c9"/></svg>