<svg id="Capa_1" enable-background="new 0 0 511.271 511.271" height="512" viewBox="0 0 511.271 511.271" width="512" xmlns="http://www.w3.org/2000/svg"><path d="m174.795 477.881h300.583c15.681 0 28.393-12.712 28.393-28.393v-177.943c0-15.681-12.712-28.393-28.393-28.393h-233.15-67.433z" fill="#fd6773"/><path d="m288.066 449.488v-206.335h-45.839-67.433v234.728h84.879c15.681 0 28.393-12.712 28.393-28.393z" fill="#fc4d5a"/><path d="m242.228 452.881h229.84c3.702 0 6.703-3.001 6.703-6.703v-56.968c0-1.987-1.611-3.598-3.598-3.598h-7.021c-14.07 0-25.924-11.514-25.657-25.582.259-13.636 11.393-24.611 25.092-24.611h7.586c1.987 0 3.598-1.611 3.598-3.598v-56.968c0-3.702-3.001-6.703-6.703-6.703h-229.84-29.748v184.729h29.748z" fill="#65daf9"/><path d="m288.066 449.488v-181.336h-45.839-29.747v184.729h29.747 45.63c.133-1.113.209-2.244.209-3.393z" fill="#1acff8"/><path d="m213.835 477.881h-177.943c-15.681 0-28.393-12.712-28.393-28.393v-387.706c0-15.681 12.712-28.393 28.393-28.393h177.943c15.681 0 28.393 12.712 28.393 28.393v387.706c0 15.681-12.712 28.393-28.393 28.393z" fill="#fd6773"/><path d="m210.525 58.39h-56.968c-1.987 0-3.598 1.611-3.598 3.598v7.021c0 14.07-11.514 25.924-25.582 25.657-13.636-.259-24.611-11.394-24.611-25.092v-7.586c0-1.987-1.611-3.598-3.598-3.598h-56.966c-3.702 0-6.703 3.001-6.703 6.703v381.086c0 3.702 3.001 6.703 6.703 6.703h171.323c3.702 0 6.703-3.001 6.703-6.703v-381.087c0-3.701-3.001-6.702-6.703-6.702z" fill="#65daf9"/><path d="m217.228 389.599c-73.11 0-132.377-59.267-132.377-132.377v-198.832h-45.649c-3.702 0-6.703 3.001-6.703 6.703v381.086c0 3.702 3.001 6.703 6.703 6.703h171.323c3.702 0 6.703-3.001 6.703-6.703z" fill="#1acff8"/><path d="m180.675 412.858h-108.596c-4.414 0-7.992-3.578-7.992-7.992v-37.841c0-4.414 3.578-7.992 7.992-7.992h108.596c4.414 0 7.992 3.578 7.992 7.992v37.841c0 4.414-3.578 7.992-7.992 7.992z" fill="#1acff8"/><path d="m132.626 359.034h-60.546c-4.414 0-7.992 3.578-7.992 7.992v37.841c0 4.414 3.578 7.992 7.992 7.992h108.596c4.414 0 7.991-3.578 7.991-7.992v-18.367c-20.98-4.615-40.094-14.2-56.041-27.466z" fill="#1ba7ee"/><path d="m275.624 412.858h119.649c4.512 0 8.169-3.658 8.169-8.169v-37.485c0-4.512-3.658-8.169-8.169-8.169h-119.649c-1.129 0-2.045.915-2.045 2.045v49.735c0 1.128.916 2.043 2.045 2.043z" fill="#1acff8"/><path d="m288.066 359.034h-12.442c-1.129 0-2.045.915-2.045 2.045v49.735c0 1.129.916 2.045 2.045 2.045h12.442z" fill="#1ba7ee"/><path d="m307.924 126.142c1.482 1.829 3.647 2.777 5.831 2.777 1.659 0 3.329-.548 4.719-1.674 3.217-2.608 3.711-7.332 1.103-10.549l-8.09-9.978h43.717c11.926 0 21.629 9.703 21.629 21.628v43.718l-9.978-8.09c-3.219-2.609-7.94-2.114-10.55 1.103-2.608 3.217-2.114 7.94 1.103 10.549l22.201 18c1.377 1.116 3.05 1.674 4.724 1.674s3.347-.558 4.724-1.674l22.201-18c3.217-2.608 3.711-7.332 1.103-10.549-2.609-3.218-7.331-3.711-10.55-1.103l-9.978 8.09v-43.718c0-20.197-16.432-36.628-36.629-36.628h-43.717l8.09-9.978c2.608-3.217 2.114-7.94-1.103-10.549-3.218-2.608-7.94-2.114-10.55 1.103l-18 22.201c-2.231 2.753-2.231 6.693 0 9.446z"/><path d="m224.728 446.178v-381.086c0-7.832-6.371-14.203-14.202-14.203h-56.968c-6.119 0-11.098 4.979-11.098 11.098v7.021c0 4.884-2.021 9.669-5.545 13.126-3.396 3.332-7.796 5.105-12.395 5.032-9.514-.181-17.253-8.073-17.253-17.593v-7.586c0-6.119-4.979-11.098-11.098-11.098h-56.967c-7.832 0-14.203 6.371-14.203 14.203v381.086c0 7.832 6.371 14.203 14.203 14.203h42.276c4.143 0 7.5-3.358 7.5-7.5s-3.357-7.5-7.5-7.5h-41.479v-379.491h52.269v3.684c0 17.636 14.341 32.256 31.968 32.59 8.648.162 16.892-3.146 23.186-9.322 6.38-6.26 10.039-14.947 10.039-23.833v-3.119h52.268v379.491h-98.249c-4.143 0-7.5 3.358-7.5 7.5s3.357 7.5 7.5 7.5h99.047c7.829 0 14.201-6.371 14.201-14.203z"/><circle cx="125.364" cy="69.553" r="9.871"/><path d="m475.378 235.653h-225.65v-173.871c0-19.791-16.102-35.893-35.893-35.893h-177.942c-19.791.001-35.893 16.102-35.893 35.893v387.706c0 19.791 16.102 35.893 35.893 35.893h138.902 39.04 261.543c19.791 0 35.893-16.102 35.893-35.893v-177.943c0-19.791-16.102-35.892-35.893-35.892zm-300.583 234.728h-138.902c-11.521 0-20.893-9.373-20.893-20.893v-387.706c0-11.52 9.372-20.893 20.893-20.893h177.942c11.521 0 20.893 9.373 20.893 20.893v387.706c0 11.52-9.372 20.893-20.893 20.893zm321.476-20.893c0 11.52-9.372 20.893-20.893 20.893h-232.386c2.17-3.019 3.886-6.384 5.04-10h224.035c7.832 0 14.203-6.371 14.203-14.203v-56.968c0-6.119-4.979-11.098-11.098-11.098h-7.021c-4.885 0-9.669-2.021-13.127-5.545-3.332-3.396-5.118-7.797-5.03-12.394.181-9.513 8.072-17.253 17.593-17.253h7.586c6.119 0 11.098-4.979 11.098-11.098v-56.968c0-7.832-6.371-14.203-14.203-14.203h-26.531c-4.143 0-7.5 3.358-7.5 7.5s3.357 7.5 7.5 7.5h25.734v52.268h-3.684c-17.636 0-32.256 14.341-32.591 31.968-.164 8.657 3.146 16.89 9.321 23.184 6.261 6.38 14.947 10.04 23.834 10.04h3.119v52.268h-221.542v-169.727h165.809c4.143 0 7.5-3.358 7.5-7.5s-3.357-7.5-7.5-7.5h-165.809v-10h225.65c11.521 0 20.893 9.373 20.893 20.893z"/><circle cx="467.607" cy="361.017" r="9.871"/><path d="m64.088 195.521h10.465c4.143 0 7.5-3.358 7.5-7.5s-3.357-7.5-7.5-7.5h-10.465c-4.143 0-7.5 3.358-7.5 7.5s3.357 7.5 7.5 7.5z"/><path d="m188.667 180.299h-92.188c-4.143 0-7.5 3.358-7.5 7.5s3.357 7.5 7.5 7.5h92.188c4.143 0 7.5-3.358 7.5-7.5s-3.357-7.5-7.5-7.5z"/><path d="m188.667 213.717h-10.465c-4.143 0-7.5 3.358-7.5 7.5s3.357 7.5 7.5 7.5h10.465c4.143 0 7.5-3.358 7.5-7.5s-3.357-7.5-7.5-7.5z"/><path d="m64.088 228.939h92.188c4.143 0 7.5-3.358 7.5-7.5s-3.357-7.5-7.5-7.5h-92.188c-4.143 0-7.5 3.358-7.5 7.5s3.357 7.5 7.5 7.5z"/><path d="m64.088 262.357h10.465c4.143 0 7.5-3.358 7.5-7.5s-3.357-7.5-7.5-7.5h-10.465c-4.143 0-7.5 3.358-7.5 7.5s3.357 7.5 7.5 7.5z"/><path d="m188.667 247.135h-92.188c-4.143 0-7.5 3.358-7.5 7.5s3.357 7.5 7.5 7.5h92.188c4.143 0 7.5-3.358 7.5-7.5s-3.357-7.5-7.5-7.5z"/><path d="m188.667 280.553h-10.465c-4.143 0-7.5 3.358-7.5 7.5s3.357 7.5 7.5 7.5h10.465c4.143 0 7.5-3.358 7.5-7.5s-3.357-7.5-7.5-7.5z"/><path d="m64.088 295.776h92.188c4.143 0 7.5-3.358 7.5-7.5s-3.357-7.5-7.5-7.5h-92.188c-4.143 0-7.5 3.358-7.5 7.5s3.357 7.5 7.5 7.5z"/><path d="m64.088 329.194h10.465c4.143 0 7.5-3.358 7.5-7.5s-3.357-7.5-7.5-7.5h-10.465c-4.143 0-7.5 3.358-7.5 7.5s3.357 7.5 7.5 7.5z"/><path d="m188.667 313.971h-92.188c-4.143 0-7.5 3.358-7.5 7.5s3.357 7.5 7.5 7.5h92.188c4.143 0 7.5-3.358 7.5-7.5s-3.357-7.5-7.5-7.5z"/><path d="m56.588 404.866c0 8.542 6.949 15.492 15.491 15.492h108.596c8.542 0 15.492-6.95 15.492-15.492v-37.841c0-8.542-6.95-15.491-15.492-15.491h-108.596c-8.542 0-15.491 6.949-15.491 15.491zm15-37.841c0-.271.221-.491.491-.491h108.596c.271 0 .492.22.492.491v37.841c0 .271-.221.492-.492.492h-108.596c-.271 0-.491-.221-.491-.492z"/><path d="m395.272 351.534h-121.693c-4.143 0-7.5 3.358-7.5 7.5s3.357 7.5 7.5 7.5h121.693c.369 0 .67.3.67.669v37.485c0 .369-.301.669-.67.669h-121.693c-4.143 0-7.5 3.358-7.5 7.5s3.357 7.5 7.5 7.5h121.693c8.641 0 15.67-7.029 15.67-15.669v-37.485c0-8.64-7.029-15.669-15.67-15.669z"/><path d="m273.579 336.194h11.645c4.143 0 7.5-3.358 7.5-7.5s-3.357-7.5-7.5-7.5h-11.645c-4.143 0-7.5 3.358-7.5 7.5s3.358 7.5 7.5 7.5z"/><path d="m403.442 321.194h-95.307c-4.143 0-7.5 3.358-7.5 7.5s3.357 7.5 7.5 7.5h95.307c4.143 0 7.5-3.358 7.5-7.5s-3.357-7.5-7.5-7.5z"/><path d="m403.442 290.854h-11.645c-4.143 0-7.5 3.358-7.5 7.5s3.357 7.5 7.5 7.5h11.645c4.143 0 7.5-3.358 7.5-7.5s-3.357-7.5-7.5-7.5z"/><path d="m273.579 305.854h95.307c4.143 0 7.5-3.358 7.5-7.5s-3.357-7.5-7.5-7.5h-95.307c-4.143 0-7.5 3.358-7.5 7.5s3.358 7.5 7.5 7.5z"/></svg>