<?xml version="1.0" encoding="iso-8859-1"?>
<!-- Generator: Adobe Illustrator 19.0.0, SVG Export Plug-In . SVG Version: 6.00 Build 0)  -->
<svg version="1.1" id="Capa_1" xmlns="http://www.w3.org/2000/svg" xmlns:xlink="http://www.w3.org/1999/xlink" x="0px" y="0px"
	 viewBox="0 0 512 512" style="enable-background:new 0 0 512 512;" xml:space="preserve">
<rect x="8.533" y="102.393" style="fill:#36AFAD;" width="85.328" height="238.917"/>
<path style="fill:#195C85;" d="M179.205,51.197H93.878v290.114h76.795c0.026-17.979,2.91-35.829,8.533-52.903V51.197z"/>
<path style="fill:#36AFAD;" d="M347.361,96.361c-3.328-3.328-8.738-3.328-12.065,0l-42.664,42.664l12.065,12.065l36.631-36.631
	l28.098,28.098c3.328,3.328,8.738,3.328,12.065,0l62.229-62.229v39.131h17.066V59.729h-0.077c0.128-4.582-3.481-8.405-8.063-8.533
	c-0.128,0-0.256,0-0.393,0h-59.729v17.066h39.131l-56.197,56.197L347.361,96.361z"/>
<g>
	<rect x="17.066" y="383.974" style="fill:#195C85;" width="136.524" height="17.066"/>
	<rect x="17.066" y="418.105" style="fill:#195C85;" width="136.524" height="17.066"/>
	<rect x="17.066" y="452.237" style="fill:#195C85;" width="136.524" height="17.066"/>
</g>
<path style="fill:#CFDFE8;" d="M264.533,189.129V8.533h-85.328v279.875C193.361,245.308,224.054,209.599,264.533,189.129z"/>
<path style="fill:#195C85;" d="M349.861,170.911c-2.816-0.171-5.717-0.256-8.533-0.256s-5.717,0.085-8.533,0.256v170.399
	c0,4.71,3.823,8.533,8.533,8.533h170.399c0.171-2.816,0.256-5.717,0.256-8.533s-0.085-5.717-0.256-8.533
	C507.324,245.266,437.364,175.314,349.861,170.911z"/>
<path style="fill:#FDBD40;" d="M494.662,349.843H341.328c-4.71,0-8.533-3.823-8.533-8.533V170.911
	c-23.781,1.203-47.041,7.406-68.262,18.217c-84.099,42.442-117.872,145.014-75.43,229.113s145.014,117.872,229.113,75.43
	c54.763-27.638,90.473-82.554,93.511-143.828H494.662z"/>
<path d="M341.328,170.655c-23.499,0-46.751,4.881-68.262,14.344V8.533c0-4.71-3.823-8.533-8.533-8.533h-85.328
	c-4.71,0-8.533,3.823-8.533,8.533v34.131H93.878c-4.71,0-8.533,3.823-8.533,8.533V93.86H8.55c-4.71,0-8.533,3.823-8.533,8.533
	v238.917c0,4.71,3.823,8.533,8.533,8.533h162.558c4.77,94.065,84.901,166.457,178.966,161.679
	c94.065-4.778,166.457-84.901,161.679-178.966C507.154,241.801,432.193,170.596,341.328,170.655z M85.345,332.778H17.083V110.926
	h68.262V332.778z M170.673,332.778H102.41V59.729h68.262V332.778z M187.738,17.066H256v176.679
	c-29.592,17.194-53.372,42.852-68.262,73.672V17.066z M341.328,494.9c-84.764,0.068-153.547-68.595-153.615-153.359
	c-0.068-81.556,63.654-148.922,145.083-153.385v153.155c0,4.71,3.823,8.533,8.533,8.533h153.155
	C489.926,431.135,422.747,494.764,341.328,494.9z M349.861,332.778V188.156c77.972,4.411,140.21,66.649,144.622,144.622H349.861z"/>
<path d="M347.361,96.361c-3.328-3.328-8.738-3.328-12.065,0l-42.664,42.664l12.065,12.065l36.631-36.631l28.098,28.098
	c3.328,3.328,8.738,3.328,12.065,0l62.229-62.229v39.131h17.066V59.729h-0.077c0.128-4.582-3.481-8.405-8.063-8.533
	c-0.128,0-0.256,0-0.393,0h-59.729v17.066h39.131l-56.197,56.197L347.361,96.361z"/>
<rect x="17.066" y="383.974" width="136.524" height="17.066"/>
<rect x="17.066" y="418.105" width="136.524" height="17.066"/>
<rect x="17.066" y="452.237" width="136.524" height="17.066"/>
<g>
</g>
<g>
</g>
<g>
</g>
<g>
</g>
<g>
</g>
<g>
</g>
<g>
</g>
<g>
</g>
<g>
</g>
<g>
</g>
<g>
</g>
<g>
</g>
<g>
</g>
<g>
</g>
<g>
</g>
</svg>
